<svg width="25" height="25" viewBox="0 0 25 25" fill="none" xmlns="http://www.w3.org/2000/svg">
<path d="M2.5 8.5C2.5 7.4 3.4 6.5 4.5 6.5H7.5L9.5 4.5H15.5L17.5 6.5H20.5C21.0304 6.5 21.5391 6.71071 21.9142 7.08579C22.2893 7.46086 22.5 7.96957 22.5 8.5V18.5C22.5 19.0304 22.2893 19.5391 21.9142 19.9142C21.5391 20.2893 21.0304 20.5 20.5 20.5H4.5C3.96957 20.5 3.46086 20.2893 3.08579 19.9142C2.71071 19.5391 2.5 19.0304 2.5 18.5V8.5ZM12.5 18.5C13.8261 18.5 15.0979 17.9732 16.0355 17.0355C16.9732 16.0979 17.5 14.8261 17.5 13.5C17.5 12.1739 16.9732 10.9021 16.0355 9.96447C15.0979 9.02678 13.8261 8.5 12.5 8.5C11.1739 8.5 9.90215 9.02678 8.96447 9.96447C8.02678 10.9021 7.5 12.1739 7.5 13.5C7.5 14.8261 8.02678 16.0979 8.96447 17.0355C9.90215 17.9732 11.1739 18.5 12.5 18.5ZM12.5 16.5C12.106 16.5 11.7159 16.4224 11.3519 16.2716C10.988 16.1209 10.6573 15.8999 10.3787 15.6213C10.1001 15.3427 9.87913 15.012 9.72836 14.6481C9.5776 14.2841 9.5 13.894 9.5 13.5C9.5 13.106 9.5776 12.7159 9.72836 12.3519C9.87913 11.988 10.1001 11.6573 10.3787 11.3787C10.6573 11.1001 10.988 10.8791 11.3519 10.7284C11.7159 10.5776 12.106 10.5 12.5 10.5C13.2956 10.5 14.0587 10.8161 14.6213 11.3787C15.1839 11.9413 15.5 12.7044 15.5 13.5C15.5 14.2956 15.1839 15.0587 14.6213 15.6213C14.0587 16.1839 13.2956 16.5 12.5 16.5Z" fill="#9A7960"/>
</svg>
