<svg width="24" height="25" viewBox="0 0 24 25" fill="none" xmlns="http://www.w3.org/2000/svg">
<path d="M2 8.5C2 7.4 2.9 6.5 4 6.5H7L9 4.5H15L17 6.5H20C20.5304 6.5 21.0391 6.71071 21.4142 7.08579C21.7893 7.46086 22 7.96957 22 8.5V18.5C22 19.0304 21.7893 19.5391 21.4142 19.9142C21.0391 20.2893 20.5304 20.5 20 20.5H4C3.46957 20.5 2.96086 20.2893 2.58579 19.9142C2.21071 19.5391 2 19.0304 2 18.5V8.5ZM12 18.5C13.3261 18.5 14.5979 17.9732 15.5355 17.0355C16.4732 16.0979 17 14.8261 17 13.5C17 12.1739 16.4732 10.9021 15.5355 9.96447C14.5979 9.02678 13.3261 8.5 12 8.5C10.6739 8.5 9.40215 9.02678 8.46447 9.96447C7.52678 10.9021 7 12.1739 7 13.5C7 14.8261 7.52678 16.0979 8.46447 17.0355C9.40215 17.9732 10.6739 18.5 12 18.5ZM12 16.5C11.606 16.5 11.2159 16.4224 10.8519 16.2716C10.488 16.1209 10.1573 15.8999 9.87868 15.6213C9.6001 15.3427 9.37913 15.012 9.22836 14.6481C9.0776 14.2841 9 13.894 9 13.5C9 13.106 9.0776 12.7159 9.22836 12.3519C9.37913 11.988 9.6001 11.6573 9.87868 11.3787C10.1573 11.1001 10.488 10.8791 10.8519 10.7284C11.2159 10.5776 11.606 10.5 12 10.5C12.7956 10.5 13.5587 10.8161 14.1213 11.3787C14.6839 11.9413 15 12.7044 15 13.5C15 14.2956 14.6839 15.0587 14.1213 15.6213C13.5587 16.1839 12.7956 16.5 12 16.5Z" fill="white"/>
</svg>
