<svg width="44" height="44" viewBox="0 0 44 44" fill="none" xmlns="http://www.w3.org/2000/svg">
<rect x="0.5" y="0.5" width="43" height="43" rx="21.5" stroke="white"/>
<path d="M30.4364 14H14.568C13.1515 14 12 15.1528 12 16.571V27.429C12 28.8472 13.1515 30 14.568 30H30.432C31.8485 30 33 28.8472 33 27.429V16.5753C33.0043 15.1572 31.8529 14 30.4364 14ZM31.8312 27.429C31.8312 28.199 31.2055 28.8254 30.4364 28.8254H14.568C13.7989 28.8254 13.1732 28.199 13.1732 27.429V16.5753C13.1732 15.8053 13.7989 15.1789 14.568 15.1789H30.432C31.2011 15.1789 31.8268 15.8053 31.8268 16.5753V27.429H31.8312Z" fill="white"/>
<path d="M25.2438 21.8655L30.3797 17.2543C30.6187 17.0368 30.6404 16.667 30.4232 16.4234C30.2059 16.1842 29.8366 16.1624 29.5933 16.3799L22.5107 22.7442L21.129 21.5088C21.1246 21.5044 21.1203 21.5001 21.1203 21.4957C21.0899 21.4653 21.0594 21.4392 21.0247 21.4131L15.4021 16.3756C15.1588 16.1581 14.7894 16.1798 14.5722 16.4234C14.3549 16.667 14.3766 17.0368 14.62 17.2543L19.8167 21.9047L14.6417 26.7551C14.4071 26.977 14.394 27.3467 14.6156 27.586C14.7329 27.7078 14.8894 27.7731 15.0458 27.7731C15.1892 27.7731 15.3326 27.7209 15.4455 27.6165L20.6988 22.6964L22.124 23.971C22.237 24.0711 22.376 24.1189 22.5151 24.1189C22.6541 24.1189 22.7975 24.0667 22.9061 23.9666L24.3704 22.6529L29.5933 27.6208C29.7062 27.7296 29.854 27.7818 29.9974 27.7818C30.1538 27.7818 30.3059 27.7209 30.4232 27.5991C30.6448 27.3641 30.6361 26.99 30.4015 26.7682L25.2438 21.8655Z" fill="white"/>
</svg>
