<svg width="40" height="40" viewBox="0 0 40 40" fill="none" xmlns="http://www.w3.org/2000/svg">
<rect width="40" height="40" rx="10" fill="#9A7960"/>
<path fill-rule="evenodd" clip-rule="evenodd" d="M32.4519 10.4818C32.8117 8.56044 31.089 6.96378 29.419 7.67065L8.94769 16.3352C7.0827 17.1246 6.9996 19.9816 8.81493 20.8994L13.273 23.1535L15.3938 31.2848C15.5039 31.7072 15.8099 32.0343 16.198 32.1445C16.5862 32.2546 16.9986 32.1316 17.2821 31.8209L20.5489 28.2421L25.1251 32.002C26.4535 33.0934 28.3667 32.2985 28.7004 30.5166L32.4519 10.4818ZM9.76341 18.6481L30.2347 9.98352L26.4832 30.0184L21.1218 25.6134C20.6713 25.2432 20.0408 25.2923 19.6426 25.7285L18.2434 27.2614L18.6638 24.7284L26.9014 15.7042C27.3024 15.2651 27.3447 14.5687 27.0006 14.0751C26.6564 13.5815 26.0321 13.4431 25.5398 13.7512L14.1633 20.8727L9.76341 18.6481ZM15.5505 22.8601L16.2367 25.4914L16.5002 23.9039C16.5413 23.6558 16.6506 23.4273 16.8134 23.2491L19.3256 20.4971L15.5505 22.8601Z" fill="white"/>
</svg>
