<svg width="40" height="40" viewBox="0 0 40 40" fill="none" xmlns="http://www.w3.org/2000/svg">
<rect width="40" height="40" rx="10" fill="#9A7960"/>
<path d="M28.9193 11.1375C26.57 8.7875 23.4419 7.5 20.1127 7.5C13.2535 7.5 7.663 13.0625 7.663 19.8875C7.663 22.075 8.24089 24.2 9.32129 26.075L7.5625 32.5L14.158 30.775C15.9796 31.7625 18.0273 32.2875 20.1127 32.2875C26.972 32.2875 32.5625 26.725 32.5625 19.9C32.5625 16.5875 31.2685 13.475 28.9193 11.1375ZM20.1127 30.1875C18.2535 30.1875 16.4318 29.6875 14.8364 28.75L14.4595 28.525L10.5399 29.55L11.5826 25.75L11.3313 25.3625C10.3012 23.725 9.74843 21.825 9.74843 19.8875C9.74843 14.2125 14.3967 9.5875 20.1002 9.5875C22.864 9.5875 25.4645 10.6625 27.4117 12.6125C29.3715 14.5625 30.4394 17.15 30.4394 19.9C30.4645 25.575 25.8163 30.1875 20.1127 30.1875ZM25.7911 22.4875C25.4771 22.3375 23.9444 21.5875 23.668 21.475C23.3791 21.375 23.1781 21.325 22.9645 21.625C22.7509 21.9375 22.1605 22.6375 21.9846 22.8375C21.8087 23.05 21.6203 23.075 21.3062 22.9125C20.9921 22.7625 19.9871 22.425 18.8062 21.375C17.8766 20.55 17.261 19.5375 17.0725 19.225C16.8967 18.9125 17.0474 18.75 17.2107 18.5875C17.3489 18.45 17.5248 18.225 17.6756 18.05C17.8263 17.875 17.8891 17.7375 17.9896 17.5375C18.0901 17.325 18.0399 17.15 17.9645 17C17.8891 16.85 17.261 15.325 17.0097 14.7C16.7585 14.1 16.4947 14.175 16.3062 14.1625C16.1178 14.1625 15.9168 14.1625 15.7032 14.1625C15.4896 14.1625 15.163 14.2375 14.8741 14.55C14.5977 14.8625 13.7937 15.6125 13.7937 17.1375C13.7937 18.6625 14.9117 20.1375 15.0625 20.3375C15.2133 20.55 17.261 23.675 20.3766 25.0125C21.1178 25.3375 21.6957 25.525 22.1479 25.6625C22.8891 25.9 23.5675 25.8625 24.1077 25.7875C24.7107 25.7 25.9545 25.0375 26.2057 24.3125C26.4695 23.5875 26.4695 22.975 26.3816 22.8375C26.2937 22.7 26.1052 22.6375 25.7911 22.4875Z" fill="white"/>
</svg>
