<svg width="40" height="40" viewBox="0 0 40 40" fill="none" xmlns="http://www.w3.org/2000/svg">
<rect width="40" height="40" rx="10" fill="#9A7960"/>
<path d="M31.1111 24.8611C29.375 24.8611 27.7083 24.5833 26.1528 24.0694C25.6667 23.9167 25.125 24.0278 24.7361 24.4028L21.6806 27.4583C17.75 25.4583 14.5278 22.25 12.5278 18.3056L15.5833 15.2361C15.9722 14.875 16.0833 14.3333 15.9306 13.8472C15.4167 12.2917 15.1389 10.625 15.1389 8.88889C15.1389 8.125 14.5139 7.5 13.75 7.5H8.88889C8.125 7.5 7.5 8.125 7.5 8.88889C7.5 21.9306 18.0694 32.5 31.1111 32.5C31.875 32.5 32.5 31.875 32.5 31.1111V26.25C32.5 25.4861 31.875 24.8611 31.1111 24.8611ZM29.7222 20H32.5C32.5 13.0972 26.9028 7.5 20 7.5V10.2778C25.375 10.2778 29.7222 14.625 29.7222 20ZM24.1667 20H26.9444C26.9444 16.1667 23.8333 13.0556 20 13.0556V15.8333C22.3056 15.8333 24.1667 17.6944 24.1667 20Z" fill="white"/>
</svg>
