<svg width="85" height="84" viewBox="0 0 85 84" fill="none" xmlns="http://www.w3.org/2000/svg">
<rect x="0.5" width="84" height="84" rx="10" fill="#E1D7CF"/>
<g clip-path="url(#clip0_678_5649)">
<path fill-rule="evenodd" clip-rule="evenodd" d="M52.3542 60.8783H23.9017C23.0122 60.8783 22.2036 60.5228 21.6179 59.9501C21.0321 59.3774 20.6685 58.5868 20.6685 57.7169V27.043C20.6685 26.1731 21.0321 25.3825 21.6179 24.8097C22.2036 24.2371 23.0122 23.8815 23.9017 23.8815H26.9683V21.1921C26.9683 20.864 27.1052 20.566 27.3257 20.3504C27.5462 20.1348 27.8509 20.001 28.1865 20.001H32.0603C32.3959 20.001 32.7005 20.1348 32.921 20.3504C33.1415 20.566 33.2784 20.864 33.2784 21.1921V23.8815H45.8962V21.1921C45.8962 20.864 46.033 20.566 46.2535 20.3504C46.474 20.1348 46.7787 20.001 47.1143 20.001H50.9881C51.3237 20.001 51.6284 20.1348 51.8488 20.3504C52.0693 20.566 52.2062 20.864 52.2062 21.1921V23.8815H55.2729C56.1626 23.8815 56.9712 24.2371 57.5568 24.8097C58.1426 25.3825 58.5062 26.1731 58.5062 27.043V51.4617C60.0412 51.6004 61.4201 52.2672 62.4505 53.2747C63.6132 54.4117 64.3325 55.9824 64.3325 57.717C64.3325 59.4517 63.6132 61.0222 62.4505 62.1592C61.2879 63.296 59.6815 63.9993 57.9074 63.9993C55.5379 63.9993 53.4683 62.7449 52.3542 60.8783ZM23.9018 59.7072H51.8116C51.5981 59.0819 51.4823 58.4126 51.4823 57.717C51.4823 54.4449 54.0409 51.7574 57.3085 51.462V34.3753H21.8662V57.7169C21.8662 58.2636 22.0955 58.7613 22.4646 59.1222C22.8338 59.4832 23.3427 59.7072 23.9018 59.7072ZM21.8662 27.043V33.2043H57.3085V27.043C57.3085 26.4962 57.0793 25.9986 56.7101 25.6376C56.341 25.2767 55.8322 25.0526 55.273 25.0526H52.2063V27.7418C52.2063 28.0684 52.0695 28.3654 51.8489 28.5813L51.8466 28.5837C51.626 28.7992 51.3221 28.9331 50.9881 28.9331H47.1144C46.781 28.9331 46.4765 28.7987 46.2549 28.5823L46.2536 28.5836C46.0331 28.368 45.8962 28.07 45.8962 27.7418V25.0526H33.2785V27.7418C33.2785 28.07 33.1414 28.368 32.921 28.5836C32.9058 28.5983 32.8903 28.6121 32.874 28.6251C32.6572 28.8161 32.3714 28.9331 32.0604 28.9331H28.1866C27.8527 28.9331 27.5487 28.7991 27.3281 28.5837L27.3257 28.5813C27.1052 28.3654 26.9684 28.0684 26.9684 27.7418V25.0526H23.9018C23.3427 25.0526 22.8338 25.2768 22.4646 25.6376C22.0955 25.9986 21.8662 26.4962 21.8662 27.043ZM26.2278 37.8571C25.8971 37.8571 25.6289 38.1193 25.6289 38.4426V42.339C25.6289 42.6623 25.8971 42.9245 26.2278 42.9245H30.2127C30.5434 42.9245 30.8115 42.6623 30.8115 42.339V38.4426C30.8115 38.1193 30.5434 37.8571 30.2127 37.8571H26.2278ZM29.6138 39.0283H26.8266V41.7534H29.6138V39.0283ZM33.8059 37.8571C33.4752 37.8571 33.2071 38.1193 33.2071 38.4426V42.339C33.2071 42.6623 33.4752 42.9245 33.8059 42.9245H37.7908C38.1215 42.9245 38.3897 42.6623 38.3897 42.339V38.4426C38.3897 38.1193 38.1215 37.8571 37.7908 37.8571H33.8059ZM37.1919 39.0283H34.4049V41.7534H37.1919V39.0283ZM41.3841 37.8571C41.0534 37.8571 40.7853 38.1193 40.7853 38.4426V42.339C40.7853 42.6623 41.0534 42.9245 41.3841 42.9245H45.3689C45.6997 42.9245 45.9679 42.6623 45.9679 42.339V38.4426C45.9679 38.1193 45.6997 37.8571 45.3689 37.8571H41.3841ZM44.7701 39.0283H41.983V41.7534H44.7701V39.0283ZM48.9624 37.8571C48.6317 37.8571 48.3635 38.1193 48.3635 38.4426V42.339C48.3635 42.6623 48.6317 42.9245 48.9624 42.9245H52.9472C53.2779 42.9245 53.5461 42.6623 53.5461 42.339V38.4426C53.5461 38.1193 53.2779 37.8571 52.9472 37.8571H48.9624ZM52.3484 39.0283H49.5612V41.7534H52.3484V39.0283ZM26.2278 44.7831C25.8971 44.7831 25.6289 45.0454 25.6289 45.3687V49.265C25.6289 49.5884 25.8971 49.8506 26.2278 49.8506H30.2127C30.5434 49.8506 30.8115 49.5884 30.8115 49.265V45.3687C30.8115 45.0454 30.5434 44.7831 30.2127 44.7831H26.2278ZM29.6138 45.9543H26.8266V48.6794H29.6138V45.9543ZM33.8059 44.7831C33.4752 44.7831 33.2071 45.0454 33.2071 45.3687V49.265C33.2071 49.5884 33.4752 49.8506 33.8059 49.8506H37.7908C38.1215 49.8506 38.3897 49.5884 38.3897 49.265V45.3687C38.3897 45.0454 38.1215 44.7831 37.7908 44.7831H33.8059ZM37.1919 45.9543H34.4049V48.6794H37.1919V45.9543ZM41.3841 44.7831C41.0534 44.7831 40.7853 45.0454 40.7853 45.3687V49.265C40.7853 49.5884 41.0534 49.8506 41.3841 49.8506H45.3689C45.6997 49.8506 45.9679 49.5884 45.9679 49.265V45.3687C45.9679 45.0454 45.6997 44.7831 45.3689 44.7831H41.3841ZM44.7701 45.9543H41.983V48.6794H44.7701V45.9543ZM48.9624 44.7831C48.6317 44.7831 48.3635 45.0454 48.3635 45.3687V49.265C48.3635 49.5884 48.6317 49.8506 48.9624 49.8506H52.9472C53.2779 49.8506 53.5461 49.5884 53.5461 49.265V45.3687C53.5461 45.0454 53.2779 44.7831 52.9472 44.7831H48.9624ZM52.3484 45.9543H49.5612V48.6794H52.3484V45.9543ZM26.2278 51.7092C25.8971 51.7092 25.6289 51.9715 25.6289 52.2948V56.1911C25.6289 56.5145 25.8971 56.7767 26.2278 56.7767H30.2127C30.5434 56.7767 30.8115 56.5145 30.8115 56.1911V52.2948C30.8115 51.9715 30.5434 51.7092 30.2127 51.7092H26.2278ZM29.6138 52.8804H26.8266V55.6055H29.6138V52.8804ZM33.8059 51.7092C33.4752 51.7092 33.2071 51.9715 33.2071 52.2948V56.1911C33.2071 56.5145 33.4752 56.7767 33.8059 56.7767H37.7908C38.1215 56.7767 38.3897 56.5145 38.3897 56.1911V52.2948C38.3897 51.9715 38.1215 51.7092 37.7908 51.7092H33.8059ZM37.1919 52.8804H34.4049V55.6055H37.1919V52.8804ZM41.3841 51.7092C41.0534 51.7092 40.7853 51.9715 40.7853 52.2948V56.1911C40.7853 56.5145 41.0534 56.7767 41.3841 56.7767H45.3689C45.6997 56.7767 45.9679 56.5145 45.9679 56.1911V52.2948C45.9679 51.9715 45.6997 51.7092 45.3689 51.7092H41.3841ZM44.7701 52.8804H41.983V55.6055H44.7701V52.8804ZM54.4716 57.9403L56.6099 60.0312C56.8438 60.2598 57.2229 60.2598 57.4566 60.0312L61.3433 56.2307C61.5772 56.0021 61.5772 55.6313 61.3433 55.4028C61.1095 55.1742 60.7305 55.1742 60.4966 55.4028L57.0333 58.7894L55.3184 57.1124C55.0845 56.8838 54.7054 56.8838 54.4717 57.1124C54.2379 57.341 54.2378 57.7118 54.4716 57.9403ZM61.6039 54.1026C60.6581 53.1779 59.3511 52.6057 57.9076 52.6057C55.0206 52.6057 52.6801 54.8942 52.6801 57.717C52.6801 60.5398 55.0206 62.8282 57.9076 62.8282C59.3511 62.8282 60.6582 62.256 61.6039 61.3312C62.5498 60.4063 63.1349 59.1284 63.1349 57.717C63.1349 56.3056 62.5498 55.0275 61.6039 54.1026ZM32.0603 21.1721H28.1866C28.1815 21.1721 28.1763 21.1746 28.1724 21.1784C28.1686 21.1821 28.1661 21.1871 28.1661 21.1921V27.7419C28.1661 27.7478 28.1681 27.7531 28.1714 27.7568C28.1752 27.76 28.1805 27.7619 28.1865 27.7619H32.0603L32.0692 27.7606L32.0742 27.7556C32.0781 27.7519 32.0808 27.7468 32.0808 27.7418V21.1921C32.0808 21.1871 32.0782 21.1821 32.0743 21.1783C32.0705 21.1746 32.0654 21.1721 32.0603 21.1721ZM50.9882 21.1721H47.1144C47.1093 21.1721 47.1041 21.1746 47.1003 21.1784C47.0965 21.1821 47.0939 21.1871 47.0939 21.1921V27.7419C47.0939 27.7469 47.0965 27.752 47.1004 27.7557L47.0992 27.7568L47.1004 27.7579C47.1029 27.7604 47.1077 27.762 47.1144 27.762H50.9882C50.9942 27.762 50.9995 27.76 51.0033 27.7569C51.0065 27.7531 51.0086 27.7478 51.0086 27.7419V21.1921C51.0086 21.1871 51.006 21.1821 51.0022 21.1783C50.9983 21.1746 50.9933 21.1721 50.9882 21.1721Z" fill="#1D1C18"/>
</g>
<defs>
<clipPath id="clip0_678_5649">
<rect width="44" height="44" fill="white" transform="translate(20.5 20)"/>
</clipPath>
</defs>
</svg>
