<svg width="85" height="84" viewBox="0 0 85 84" fill="none" xmlns="http://www.w3.org/2000/svg">
<rect x="0.5" width="84" height="84" rx="10" fill="#E1D7CF"/>
<g clip-path="url(#clip0_650_1476)">
<path d="M24.8996 40.8998H31.4996C31.6455 40.8998 31.7854 40.8419 31.8885 40.7387C31.9917 40.6356 32.0496 40.4957 32.0496 40.3498C32.0496 40.2039 31.9917 40.064 31.8885 39.9609C31.7854 39.8578 31.6455 39.7998 31.4996 39.7998H24.8996C24.7537 39.7998 24.6138 39.8578 24.5107 39.9609C24.4076 40.064 24.3496 40.2039 24.3496 40.3498C24.3496 40.4957 24.4076 40.6356 24.5107 40.7387C24.6138 40.8419 24.7537 40.8998 24.8996 40.8998Z" fill="#1D1C18"/>
<path d="M31.4996 55.75H24.8996C24.7537 55.75 24.6138 55.8079 24.5107 55.9111C24.4076 56.0142 24.3496 56.1541 24.3496 56.3C24.3496 56.4459 24.4076 56.5858 24.5107 56.6889C24.6138 56.7921 24.7537 56.85 24.8996 56.85H31.4996C31.6455 56.85 31.7854 56.7921 31.8885 56.6889C31.9917 56.5858 32.0496 56.4459 32.0496 56.3C32.0496 56.1541 31.9917 56.0142 31.8885 55.9111C31.7854 55.8079 31.6455 55.75 31.4996 55.75Z" fill="#1D1C18"/>
<path d="M39.7496 43.1001H24.8996C24.7537 43.1001 24.6138 43.158 24.5107 43.2612C24.4076 43.3643 24.3496 43.5042 24.3496 43.6501C24.3496 43.796 24.4076 43.9359 24.5107 44.039C24.6138 44.1422 24.7537 44.2001 24.8996 44.2001H39.7496C39.8955 44.2001 40.0354 44.1422 40.1385 44.039C40.2417 43.9359 40.2996 43.796 40.2996 43.6501C40.2996 43.5042 40.2417 43.3643 40.1385 43.2612C40.0354 43.158 39.8955 43.1001 39.7496 43.1001Z" fill="#1D1C18"/>
<path d="M47.3072 28.1479H32.4572C32.3114 28.1479 32.1715 28.2059 32.0683 28.309C31.9652 28.4122 31.9072 28.5521 31.9072 28.6979C31.9072 28.8438 31.9652 28.9837 32.0683 29.0869C32.1715 29.19 32.3114 29.2479 32.4572 29.2479H47.3072C47.4531 29.2479 47.593 29.19 47.6961 29.0869C47.7993 28.9837 47.8572 28.8438 47.8572 28.6979C47.8572 28.5521 47.7993 28.4122 47.6961 28.309C47.593 28.2059 47.4531 28.1479 47.3072 28.1479Z" fill="#1D1C18"/>
<path d="M47.3072 25.7036H32.4572C32.3114 25.7036 32.1715 25.7616 32.0683 25.8647C31.9652 25.9678 31.9072 26.1077 31.9072 26.2536C31.9072 26.3995 31.9652 26.5394 32.0683 26.6425C32.1715 26.7457 32.3114 26.8036 32.4572 26.8036H47.3072C47.4531 26.8036 47.593 26.7457 47.6961 26.6425C47.7993 26.5394 47.8572 26.3995 47.8572 26.2536C47.8572 26.1077 47.7993 25.9678 47.6961 25.8647C47.593 25.7616 47.4531 25.7036 47.3072 25.7036Z" fill="#1D1C18"/>
<path d="M39.7496 46.3999H24.8996C24.7537 46.3999 24.6138 46.4578 24.5107 46.561C24.4076 46.6641 24.3496 46.804 24.3496 46.9499C24.3496 47.0958 24.4076 47.2357 24.5107 47.3388C24.6138 47.442 24.7537 47.4999 24.8996 47.4999H39.7496C39.8955 47.4999 40.0354 47.442 40.1385 47.3388C40.2417 47.2357 40.2996 47.0958 40.2996 46.9499C40.2996 46.804 40.2417 46.6641 40.1385 46.561C40.0354 46.4578 39.8955 46.3999 39.7496 46.3999Z" fill="#1D1C18"/>
<path d="M36.2137 49.7002H24.8996C24.7537 49.7002 24.6138 49.7581 24.5107 49.8613C24.4076 49.9644 24.3496 50.1043 24.3496 50.2502C24.3496 50.3961 24.4076 50.536 24.5107 50.6391C24.6138 50.7422 24.7537 50.8002 24.8996 50.8002H36.2137C36.3595 50.8002 36.4994 50.7422 36.6026 50.6391C36.7057 50.536 36.7637 50.3961 36.7637 50.2502C36.7637 50.1043 36.7057 49.9644 36.6026 49.8613C36.4994 49.7581 36.3595 49.7002 36.2137 49.7002Z" fill="#1D1C18"/>
<path d="M63.95 37.6H52.4V20.55C52.4 20.4041 52.3421 20.2642 52.2389 20.1611C52.1358 20.0579 51.9959 20 51.85 20H28.75C28.6047 20.0028 28.4658 20.0604 28.3611 20.1612L20.6612 27.8611C20.6097 27.9139 20.5697 27.9769 20.544 28.0459C20.5181 28.111 20.5032 28.18 20.5 28.25V61.25C20.5 61.3959 20.5579 61.5358 20.6611 61.6389C20.7642 61.7421 20.9041 61.8 21.05 61.8H41.4V63.45C41.4 63.5959 41.4579 63.7358 41.5611 63.8389C41.6642 63.9421 41.8041 64 41.95 64H63.95C64.0959 64 64.2358 63.9421 64.3389 63.8389C64.4421 63.7358 64.5 63.5959 64.5 63.45V38.15C64.5 38.0041 64.4421 37.8642 64.3389 37.7611C64.2358 37.6579 64.0959 37.6 63.95 37.6ZM28.2 21.8777V27.7H22.3777L28.2 21.8777ZM21.6 60.7V28.8H28.75C28.8959 28.8 29.0358 28.7421 29.1389 28.6389C29.2421 28.5358 29.3 28.3959 29.3 28.25V21.1H51.3V37.6H41.95C41.8041 37.6 41.6642 37.6579 41.5611 37.7611C41.4579 37.8642 41.4 38.0041 41.4 38.15V60.7H21.6ZM63.4 62.9H42.5V38.7H63.4V62.9Z" fill="#1D1C18"/>
<path d="M44.083 40.9001V47.5001C44.083 47.646 44.141 47.7859 44.2441 47.889C44.3472 47.9922 44.4871 48.0501 44.633 48.0501H61.2672C61.4131 48.0501 61.553 47.9922 61.6561 47.889C61.7593 47.7859 61.8172 47.646 61.8172 47.5001V40.9001C61.8172 40.7542 61.7593 40.6143 61.6561 40.5112C61.553 40.408 61.4131 40.3501 61.2672 40.3501H44.633C44.4871 40.3501 44.3472 40.408 44.2441 40.5112C44.141 40.6143 44.083 40.7542 44.083 40.9001ZM45.183 41.4501H60.7172V46.9501H45.183V41.4501Z" fill="#1D1C18"/>
<path d="M61.2671 50.25H56.8C56.6541 50.25 56.5142 50.3079 56.4111 50.4111C56.3079 50.5142 56.25 50.6541 56.25 50.8V60.7C56.25 60.8459 56.3079 60.9858 56.4111 61.0889C56.5142 61.1921 56.6541 61.25 56.8 61.25H61.2671C61.413 61.25 61.5529 61.1921 61.656 61.0889C61.7592 60.9858 61.8171 60.8459 61.8171 60.7V50.8C61.8171 50.6541 61.7592 50.5142 61.656 50.4111C61.5529 50.3079 61.413 50.25 61.2671 50.25ZM60.7171 60.15H57.35V51.35H60.7171V60.15Z" fill="#1D1C18"/>
<path d="M48.5504 56.2998H44.7004C44.5545 56.2998 44.4146 56.3578 44.3115 56.4609C44.2083 56.564 44.1504 56.7039 44.1504 56.8498V60.6998C44.1504 60.8457 44.2083 60.9856 44.3115 61.0887C44.4146 61.1919 44.5545 61.2498 44.7004 61.2498H48.5504C48.6963 61.2498 48.8362 61.1919 48.9393 61.0887C49.0424 60.9856 49.1004 60.8457 49.1004 60.6998V56.8498C49.1004 56.7039 49.0424 56.564 48.9393 56.4609C48.8362 56.3578 48.6963 56.2998 48.5504 56.2998ZM48.0004 60.1498H45.2504V57.3998H48.0004V60.1498Z" fill="#1D1C18"/>
<path d="M48.5504 50.25H44.7004C44.5545 50.25 44.4146 50.3079 44.3115 50.4111C44.2083 50.5142 44.1504 50.6541 44.1504 50.8V54.65C44.1504 54.7959 44.2083 54.9358 44.3115 55.0389C44.4146 55.1421 44.5545 55.2 44.7004 55.2H48.5504C48.6963 55.2 48.8362 55.1421 48.9393 55.0389C49.0424 54.9358 49.1004 54.7959 49.1004 54.65V50.8C49.1004 50.6541 49.0424 50.5142 48.9393 50.4111C48.8362 50.3079 48.6963 50.25 48.5504 50.25ZM48.0004 54.1H45.2504V51.35H48.0004V54.1Z" fill="#1D1C18"/>
<path d="M54.5992 56.2998H50.7492C50.6033 56.2998 50.4635 56.3578 50.3603 56.4609C50.2572 56.564 50.1992 56.7039 50.1992 56.8498V60.6998C50.1992 60.8457 50.2572 60.9856 50.3603 61.0887C50.4635 61.1919 50.6033 61.2498 50.7492 61.2498H54.5992C54.7451 61.2498 54.885 61.1919 54.9881 61.0887C55.0913 60.9856 55.1492 60.8457 55.1492 60.6998V56.8498C55.1492 56.7039 55.0913 56.564 54.9881 56.4609C54.885 56.3578 54.7451 56.2998 54.5992 56.2998ZM54.0492 60.1498H51.2992V57.3998H54.0492V60.1498Z" fill="#1D1C18"/>
<path d="M54.5992 50.25H50.7492C50.6033 50.25 50.4635 50.3079 50.3603 50.4111C50.2572 50.5142 50.1992 50.6541 50.1992 50.8V54.65C50.1992 54.7959 50.2572 54.9358 50.3603 55.0389C50.4635 55.1421 50.6033 55.2 50.7492 55.2H54.5992C54.7451 55.2 54.885 55.1421 54.9881 55.0389C55.0913 54.9358 55.1492 54.7959 55.1492 54.65V50.8C55.1492 50.6541 55.0913 50.5142 54.9881 50.4111C54.885 50.3079 54.7451 50.25 54.5992 50.25ZM54.0492 54.1H51.2992V51.35H54.0492V54.1Z" fill="#1D1C18"/>
</g>
<defs>
<clipPath id="clip0_650_1476">
<rect width="44" height="44" fill="white" transform="translate(20.5 20)"/>
</clipPath>
</defs>
</svg>
