<svg width="85" height="84" viewBox="0 0 85 84" fill="none" xmlns="http://www.w3.org/2000/svg">
<rect x="0.5" width="84" height="84" rx="10" fill="#E1D7CF"/>
<g clip-path="url(#clip0_678_5658)">
<path d="M21.0983 26.5393C21.0703 26.824 18.5773 55.135 42.2881 63.9619C42.356 63.9871 42.4278 64 42.4993 64C42.5731 64 42.6471 63.9866 42.717 63.9597C66.624 54.7494 63.93 26.8159 63.9 26.535C63.872 26.2724 63.6521 26.0661 63.3756 26.0425C53.1448 25.1686 42.8688 20.1477 42.7662 20.0967C42.5988 20.014 42.3998 20.014 42.2324 20.0967C42.1298 20.1477 31.8538 25.1686 21.623 26.0425C21.3448 26.0661 21.124 26.2751 21.0983 26.5393ZM22.2195 27.0931C31.5852 26.1762 40.8272 21.9884 42.4993 21.2005C44.1717 21.9889 53.4156 26.1773 62.7828 27.0931C63.0157 30.6654 63.7324 54.5141 42.4956 62.8571C21.4401 54.8557 22.0108 30.7046 22.2195 27.0931Z" fill="#1D1C18"/>
<path d="M42.2023 58.4705C42.2944 58.5237 42.3979 58.55 42.5016 58.55C42.6074 58.55 42.7134 58.5226 42.8067 58.4673C58.7223 49.0915 58.2415 30.6396 58.2347 30.4543C58.2245 30.1782 58.0006 29.9521 57.7114 29.9258C50.5823 29.2754 42.8434 25.536 42.7659 25.4984C42.6003 25.4178 42.403 25.4178 42.2373 25.4984C42.1599 25.536 34.4272 29.2743 27.2915 29.9258C27.0148 29.951 26.796 30.1594 26.7705 30.4226C26.7527 30.6042 25.2027 48.7128 42.2023 58.4705ZM27.8976 30.971C34.4292 30.2577 41.0859 27.2671 42.5016 26.6032C43.9156 27.2666 50.5552 30.2491 57.0776 30.9678C57.0333 33.8526 56.1354 49.1049 42.4974 57.3528C27.905 48.7719 27.7871 33.7495 27.8976 30.971Z" fill="#1D1C18"/>
<path d="M51.195 39.1121C51.234 39.1196 51.273 39.1234 51.3111 39.1234C51.5805 39.1234 51.822 38.944 51.8779 38.683C52.4184 36.1618 52.3611 34.3753 52.3585 34.3007C52.3475 33.9972 52.0948 33.7759 51.7603 33.77C51.4409 33.7802 51.1907 34.0343 51.2012 34.3377C51.2017 34.3549 51.2546 36.0785 50.7432 38.4638C50.6793 38.7614 50.8817 39.052 51.195 39.1121Z" fill="#1D1C18"/>
<path d="M42.4938 51.7409C42.5978 51.7409 42.7032 51.7141 42.7982 51.6582C46.104 49.7112 48.6211 46.9472 50.2796 43.4442C50.4108 43.167 50.2807 42.8416 49.989 42.7169C49.6973 42.5934 49.3546 42.7164 49.2235 42.993C47.6613 46.293 45.2944 48.8937 42.1882 50.7236C41.9162 50.8837 41.8326 51.2226 42.001 51.481C42.1107 51.6485 42.3001 51.7409 42.4938 51.7409Z" fill="#1D1C18"/>
</g>
<defs>
<clipPath id="clip0_678_5658">
<rect width="44" height="44" fill="white" transform="translate(20.5 20)"/>
</clipPath>
</defs>
</svg>
