<svg width="64" height="64" viewBox="0 0 64 64" fill="none" xmlns="http://www.w3.org/2000/svg">
<rect width="64" height="64" rx="10" fill="#F5F2EF"/>
<path fill-rule="evenodd" clip-rule="evenodd" d="M44.4519 22.4818C44.8117 20.5604 43.089 18.9638 41.419 19.6706L20.9477 28.3352C19.0827 29.1246 18.9996 31.9816 20.8149 32.8994L25.273 35.1535L27.3938 43.2848C27.5039 43.7072 27.8099 44.0343 28.198 44.1445C28.5862 44.2546 28.9986 44.1316 29.2821 43.8209L32.5489 40.2421L37.1251 44.002C38.4535 45.0934 40.3667 44.2985 40.7004 42.5166L44.4519 22.4818ZM21.7634 30.6481L42.2347 21.9835L38.4832 42.0184L33.1218 37.6134C32.6713 37.2432 32.0408 37.2923 31.6426 37.7285L30.2434 39.2614L30.6638 36.7284L38.9014 27.7042C39.3024 27.2651 39.3447 26.5687 39.0006 26.0751C38.6564 25.5815 38.0321 25.4431 37.5398 25.7512L26.1633 32.8727L21.7634 30.6481ZM27.5505 34.8601L28.2367 37.4914L28.5002 35.9039C28.5413 35.6558 28.6506 35.4273 28.8134 35.2491L31.3256 32.4971L27.5505 34.8601Z" fill="#3B241A"/>
</svg>
