<svg width="64" height="64" viewBox="0 0 64 64" fill="none" xmlns="http://www.w3.org/2000/svg">
<rect width="64" height="64" rx="10" fill="#F5F2EF"/>
<g clip-path="url(#clip0_706_2806)">
<path d="M14.3996 30.8998H20.9996C21.1455 30.8998 21.2854 30.8419 21.3885 30.7387C21.4917 30.6356 21.5496 30.4957 21.5496 30.3498C21.5496 30.2039 21.4917 30.064 21.3885 29.9609C21.2854 29.8578 21.1455 29.7998 20.9996 29.7998H14.3996C14.2537 29.7998 14.1138 29.8578 14.0107 29.9609C13.9076 30.064 13.8496 30.2039 13.8496 30.3498C13.8496 30.4957 13.9076 30.6356 14.0107 30.7387C14.1138 30.8419 14.2537 30.8998 14.3996 30.8998Z" fill="#3B241A"/>
<path d="M20.9996 45.75H14.3996C14.2537 45.75 14.1138 45.8079 14.0107 45.9111C13.9076 46.0142 13.8496 46.1541 13.8496 46.3C13.8496 46.4459 13.9076 46.5858 14.0107 46.6889C14.1138 46.7921 14.2537 46.85 14.3996 46.85H20.9996C21.1455 46.85 21.2854 46.7921 21.3885 46.6889C21.4917 46.5858 21.5496 46.4459 21.5496 46.3C21.5496 46.1541 21.4917 46.0142 21.3885 45.9111C21.2854 45.8079 21.1455 45.75 20.9996 45.75Z" fill="#3B241A"/>
<path d="M29.2496 33.1001H14.3996C14.2537 33.1001 14.1138 33.158 14.0107 33.2612C13.9076 33.3643 13.8496 33.5042 13.8496 33.6501C13.8496 33.796 13.9076 33.9359 14.0107 34.039C14.1138 34.1422 14.2537 34.2001 14.3996 34.2001H29.2496C29.3955 34.2001 29.5354 34.1422 29.6385 34.039C29.7417 33.9359 29.7996 33.796 29.7996 33.6501C29.7996 33.5042 29.7417 33.3643 29.6385 33.2612C29.5354 33.158 29.3955 33.1001 29.2496 33.1001Z" fill="#3B241A"/>
<path d="M36.8082 18.1479H21.9582C21.8123 18.1479 21.6724 18.2059 21.5693 18.309C21.4661 18.4122 21.4082 18.5521 21.4082 18.6979C21.4082 18.8438 21.4661 18.9837 21.5693 19.0869C21.6724 19.19 21.8123 19.2479 21.9582 19.2479H36.8082C36.9541 19.2479 37.094 19.19 37.1971 19.0869C37.3003 18.9837 37.3582 18.8438 37.3582 18.6979C37.3582 18.5521 37.3003 18.4122 37.1971 18.309C37.094 18.2059 36.9541 18.1479 36.8082 18.1479Z" fill="#3B241A"/>
<path d="M36.8082 15.7036H21.9582C21.8123 15.7036 21.6724 15.7616 21.5693 15.8647C21.4661 15.9678 21.4082 16.1077 21.4082 16.2536C21.4082 16.3995 21.4661 16.5394 21.5693 16.6425C21.6724 16.7457 21.8123 16.8036 21.9582 16.8036H36.8082C36.9541 16.8036 37.094 16.7457 37.1971 16.6425C37.3003 16.5394 37.3582 16.3995 37.3582 16.2536C37.3582 16.1077 37.3003 15.9678 37.1971 15.8647C37.094 15.7616 36.9541 15.7036 36.8082 15.7036Z" fill="#3B241A"/>
<path d="M29.2496 36.3999H14.3996C14.2537 36.3999 14.1138 36.4578 14.0107 36.561C13.9076 36.6641 13.8496 36.804 13.8496 36.9499C13.8496 37.0958 13.9076 37.2357 14.0107 37.3388C14.1138 37.442 14.2537 37.4999 14.3996 37.4999H29.2496C29.3955 37.4999 29.5354 37.442 29.6385 37.3388C29.7417 37.2357 29.7996 37.0958 29.7996 36.9499C29.7996 36.804 29.7417 36.6641 29.6385 36.561C29.5354 36.4578 29.3955 36.3999 29.2496 36.3999Z" fill="#3B241A"/>
<path d="M25.7137 39.7002H14.3996C14.2537 39.7002 14.1138 39.7581 14.0107 39.8613C13.9076 39.9644 13.8496 40.1043 13.8496 40.2502C13.8496 40.3961 13.9076 40.536 14.0107 40.6391C14.1138 40.7423 14.2537 40.8002 14.3996 40.8002H25.7137C25.8595 40.8002 25.9994 40.7423 26.1026 40.6391C26.2057 40.536 26.2637 40.3961 26.2637 40.2502C26.2637 40.1043 26.2057 39.9644 26.1026 39.8613C25.9994 39.7581 25.8595 39.7002 25.7137 39.7002Z" fill="#3B241A"/>
<path d="M53.45 27.6H41.9V10.55C41.9 10.4041 41.8421 10.2642 41.7389 10.1611C41.6358 10.0579 41.4959 10 41.35 10H18.25C18.1047 10.0028 17.9658 10.0604 17.8611 10.1612L10.1612 17.8611C10.1097 17.9139 10.0697 17.9769 10.044 18.046C10.0181 18.111 10.0032 18.18 10 18.25V51.25C10 51.3959 10.0579 51.5358 10.1611 51.6389C10.2642 51.7421 10.4041 51.8 10.55 51.8H30.9V53.45C30.9 53.5959 30.9579 53.7358 31.0611 53.8389C31.1642 53.9421 31.3041 54 31.45 54H53.45C53.5959 54 53.7358 53.9421 53.8389 53.8389C53.9421 53.7358 54 53.5959 54 53.45V28.15C54 28.0041 53.9421 27.8642 53.8389 27.7611C53.7358 27.6579 53.5959 27.6 53.45 27.6ZM17.7 11.8777V17.7H11.8777L17.7 11.8777ZM11.1 50.7V18.8H18.25C18.3959 18.8 18.5358 18.7421 18.6389 18.6389C18.7421 18.5358 18.8 18.3959 18.8 18.25V11.1H40.8V27.6H31.45C31.3041 27.6 31.1642 27.6579 31.0611 27.7611C30.9579 27.8642 30.9 28.0041 30.9 28.15V50.7H11.1ZM52.9 52.9H32V28.7H52.9V52.9Z" fill="#3B241A"/>
<path d="M33.584 30.9001V37.5001C33.584 37.646 33.6419 37.7859 33.7451 37.889C33.8482 37.9922 33.9881 38.0501 34.134 38.0501H50.7682C50.9141 38.0501 51.054 37.9922 51.1571 37.889C51.2602 37.7859 51.3182 37.646 51.3182 37.5001V30.9001C51.3182 30.7542 51.2602 30.6143 51.1571 30.5112C51.054 30.408 50.9141 30.3501 50.7682 30.3501H34.134C33.9881 30.3501 33.8482 30.408 33.7451 30.5112C33.6419 30.6143 33.584 30.7542 33.584 30.9001ZM34.684 31.4501H50.2182V36.9501H34.684V31.4501Z" fill="#3B241A"/>
<path d="M50.7671 40.25H46.3C46.1541 40.25 46.0142 40.3079 45.9111 40.4111C45.8079 40.5142 45.75 40.6541 45.75 40.8V50.7C45.75 50.8459 45.8079 50.9858 45.9111 51.0889C46.0142 51.1921 46.1541 51.25 46.3 51.25H50.7671C50.913 51.25 51.0529 51.1921 51.156 51.0889C51.2592 50.9858 51.3171 50.8459 51.3171 50.7V40.8C51.3171 40.6541 51.2592 40.5142 51.156 40.4111C51.0529 40.3079 50.913 40.25 50.7671 40.25ZM50.2171 50.15H46.85V41.35H50.2171V50.15Z" fill="#3B241A"/>
<path d="M38.0504 46.2998H34.2004C34.0545 46.2998 33.9146 46.3578 33.8115 46.4609C33.7083 46.564 33.6504 46.7039 33.6504 46.8498V50.6998C33.6504 50.8457 33.7083 50.9856 33.8115 51.0887C33.9146 51.1919 34.0545 51.2498 34.2004 51.2498H38.0504C38.1963 51.2498 38.3362 51.1919 38.4393 51.0887C38.5424 50.9856 38.6004 50.8457 38.6004 50.6998V46.8498C38.6004 46.7039 38.5424 46.564 38.4393 46.4609C38.3362 46.3578 38.1963 46.2998 38.0504 46.2998ZM37.5004 50.1498H34.7504V47.3998H37.5004V50.1498Z" fill="#3B241A"/>
<path d="M38.0504 40.25H34.2004C34.0545 40.25 33.9146 40.3079 33.8115 40.4111C33.7083 40.5142 33.6504 40.6541 33.6504 40.8V44.65C33.6504 44.7959 33.7083 44.9358 33.8115 45.0389C33.9146 45.1421 34.0545 45.2 34.2004 45.2H38.0504C38.1963 45.2 38.3362 45.1421 38.4393 45.0389C38.5424 44.9358 38.6004 44.7959 38.6004 44.65V40.8C38.6004 40.6541 38.5424 40.5142 38.4393 40.4111C38.3362 40.3079 38.1963 40.25 38.0504 40.25ZM37.5004 44.1H34.7504V41.35H37.5004V44.1Z" fill="#3B241A"/>
<path d="M44.0992 46.2998H40.2492C40.1033 46.2998 39.9635 46.3578 39.8603 46.4609C39.7572 46.564 39.6992 46.7039 39.6992 46.8498V50.6998C39.6992 50.8457 39.7572 50.9856 39.8603 51.0887C39.9635 51.1919 40.1033 51.2498 40.2492 51.2498H44.0992C44.2451 51.2498 44.385 51.1919 44.4881 51.0887C44.5913 50.9856 44.6492 50.8457 44.6492 50.6998V46.8498C44.6492 46.7039 44.5913 46.564 44.4881 46.4609C44.385 46.3578 44.2451 46.2998 44.0992 46.2998ZM43.5492 50.1498H40.7992V47.3998H43.5492V50.1498Z" fill="#3B241A"/>
<path d="M44.0992 40.25H40.2492C40.1033 40.25 39.9635 40.3079 39.8603 40.4111C39.7572 40.5142 39.6992 40.6541 39.6992 40.8V44.65C39.6992 44.7959 39.7572 44.9358 39.8603 45.0389C39.9635 45.1421 40.1033 45.2 40.2492 45.2H44.0992C44.2451 45.2 44.385 45.1421 44.4881 45.0389C44.5913 44.9358 44.6492 44.7959 44.6492 44.65V40.8C44.6492 40.6541 44.5913 40.5142 44.4881 40.4111C44.385 40.3079 44.2451 40.25 44.0992 40.25ZM43.5492 44.1H40.7992V41.35H43.5492V44.1Z" fill="#3B241A"/>
</g>
<defs>
<clipPath id="clip0_706_2806">
<rect width="44" height="44" fill="white" transform="translate(10 10)"/>
</clipPath>
</defs>
</svg>
