<svg width="64" height="64" viewBox="0 0 64 64" fill="none" xmlns="http://www.w3.org/2000/svg">
<rect width="64" height="64" rx="10" fill="#F5F2EF"/>
<path d="M40.9193 23.1375C38.57 20.7875 35.4419 19.5 32.1127 19.5C25.2535 19.5 19.663 25.0625 19.663 31.8875C19.663 34.075 20.2409 36.2 21.3213 38.075L19.5625 44.5L26.158 42.775C27.9796 43.7625 30.0273 44.2875 32.1127 44.2875C38.972 44.2875 44.5625 38.725 44.5625 31.9C44.5625 28.5875 43.2685 25.475 40.9193 23.1375ZM32.1127 42.1875C30.2535 42.1875 28.4318 41.6875 26.8364 40.75L26.4595 40.525L22.5399 41.55L23.5826 37.75L23.3313 37.3625C22.3012 35.725 21.7484 33.825 21.7484 31.8875C21.7484 26.2125 26.3967 21.5875 32.1002 21.5875C34.864 21.5875 37.4645 22.6625 39.4117 24.6125C41.3715 26.5625 42.4394 29.15 42.4394 31.9C42.4645 37.575 37.8163 42.1875 32.1127 42.1875ZM37.7911 34.4875C37.4771 34.3375 35.9444 33.5875 35.668 33.475C35.3791 33.375 35.1781 33.325 34.9645 33.625C34.7509 33.9375 34.1605 34.6375 33.9846 34.8375C33.8087 35.05 33.6203 35.075 33.3062 34.9125C32.9921 34.7625 31.9871 34.425 30.8062 33.375C29.8766 32.55 29.261 31.5375 29.0725 31.225C28.8967 30.9125 29.0474 30.75 29.2107 30.5875C29.3489 30.45 29.5248 30.225 29.6756 30.05C29.8263 29.875 29.8891 29.7375 29.9896 29.5375C30.0901 29.325 30.0399 29.15 29.9645 29C29.8891 28.85 29.261 27.325 29.0097 26.7C28.7585 26.1 28.4947 26.175 28.3062 26.1625C28.1178 26.1625 27.9168 26.1625 27.7032 26.1625C27.4896 26.1625 27.163 26.2375 26.8741 26.55C26.5977 26.8625 25.7937 27.6125 25.7937 29.1375C25.7937 30.6625 26.9117 32.1375 27.0625 32.3375C27.2133 32.55 29.261 35.675 32.3766 37.0125C33.1178 37.3375 33.6957 37.525 34.1479 37.6625C34.8891 37.9 35.5675 37.8625 36.1077 37.7875C36.7107 37.7 37.9545 37.0375 38.2057 36.3125C38.4695 35.5875 38.4695 34.975 38.3816 34.8375C38.2937 34.7 38.1052 34.6375 37.7911 34.4875Z" fill="#3B241A"/>
</svg>
