<svg width="64" height="64" viewBox="0 0 64 64" fill="none" xmlns="http://www.w3.org/2000/svg">
<rect width="64" height="64" rx="10" fill="#F5F2EF"/>
<path d="M16.6344 14.5397H28.1582C28.351 14.5397 28.5074 14.3834 28.5074 14.1905C28.5074 13.9977 28.351 13.8413 28.1582 13.8413H16.6344C16.4415 13.8413 16.2852 13.9977 16.2852 14.1905C16.2852 14.3834 16.4415 14.5397 16.6344 14.5397Z" fill="#3B241A"/>
<path d="M28.1582 19.4289C28.351 19.4289 28.5074 19.2725 28.5074 19.0797C28.5074 18.8868 28.351 18.7305 28.1582 18.7305H16.6344C16.4415 18.7305 16.2852 18.8868 16.2852 19.0797C16.2852 19.2725 16.4415 19.4289 16.6344 19.4289H28.1582Z" fill="#1D1C18"/>
<path d="M53.9632 53.4946L51.5556 48.6795V40.7302C51.5556 39.3823 50.459 38.2857 49.1111 38.2857H45.8601C46.8455 36.2274 47.3651 33.9454 47.3651 31.6508C47.3651 23.2952 40.6608 16.4765 32.3492 16.2902V12.4444C32.3492 11.0966 31.2526 10 29.9048 10H14.8889C13.541 10 12.4444 11.0966 12.4444 12.4444V20.3938L10.0368 25.2089C9.97134 25.34 9.99465 25.498 10.0951 25.6046C10.1624 25.6761 10.2551 25.7143 10.3493 25.7143L15.3098 23.619H18.8994C17.4162 26.0325 16.6349 28.7954 16.6349 31.6508C16.6349 40.0064 23.3391 46.8251 31.6508 47.0114V49.4603C31.6508 50.8082 32.7474 51.9048 34.0952 51.9048H48.6902L53.6507 54C53.7449 54 53.8376 53.9618 53.9049 53.8904C54.0053 53.7837 54.0287 53.6257 53.9632 53.4946ZM15.2381 22.9206C15.1908 22.9206 15.144 22.9302 15.1006 22.9488L11.0878 24.6685L13.1428 20.4762V12.4444C13.1428 11.4817 13.9261 10.6984 14.8889 10.6984H29.9048C30.8675 10.6984 31.6508 11.4817 31.6508 12.4444V21.1746C31.6508 22.1374 30.8675 22.9206 29.9048 22.9206H19.5394H19.5382H15.2381ZM32.1036 22.2416C34.8676 22.4646 37.1037 24.7581 37.232 27.5452C37.3446 29.9935 35.9384 31.9026 33.2723 32.9206C33.137 32.9723 33.0477 33.1021 33.0477 33.2468V36.3651C33.0477 36.4614 32.9694 36.5397 32.8731 36.5397H31.1271C31.0308 36.5397 30.9525 36.4614 30.9525 36.3651V33.0075C30.9525 32.3665 31.3219 31.7797 31.8938 31.5124C33.9586 30.5473 35.1429 29.1977 35.1429 27.8095C35.1429 25.9204 33.6068 24.3542 31.7187 24.3182C30.7928 24.3007 29.9093 24.655 29.235 25.3166C28.551 25.9876 28.1587 26.9189 28.1587 27.8716V29.381C28.1587 29.4772 28.0804 29.5556 27.9841 29.5556H26.2381C26.1418 29.5556 26.0635 29.4772 26.0635 29.381V27.8095C26.0635 26.2011 26.7542 24.6819 27.9603 23.619H29.9048C30.8703 23.619 31.7067 23.0563 32.1036 22.2416ZM31.6508 46.313C23.7242 46.1269 17.3333 39.6213 17.3333 31.6508C17.3333 28.7798 18.1607 26.0071 19.7269 23.619H26.9703C25.9427 24.7651 25.3651 26.2499 25.3651 27.8095V29.381C25.3651 29.8623 25.7567 30.254 26.2381 30.254H27.9841C28.4655 30.254 28.8571 29.8623 28.8571 29.381V27.8716C28.8571 27.1053 29.1731 26.3557 29.7241 25.8151C30.2636 25.2859 30.9659 25.0038 31.7054 25.0164C33.2158 25.0453 34.4444 26.2982 34.4444 27.8095C34.4444 29.3798 32.4538 30.4797 31.5981 30.8797C30.7815 31.2613 30.254 32.0965 30.254 33.0075V36.3651C30.254 36.8465 30.6456 37.2381 31.127 37.2381H32.873C33.3544 37.2381 33.746 36.8465 33.746 36.3651V33.4841C36.5306 32.3406 38.0521 30.1757 37.9297 27.513C37.7878 24.4304 35.3544 21.8845 32.3185 21.5602C32.3385 21.4345 32.3492 21.3057 32.3492 21.1745V16.9886C40.2758 17.1747 46.6667 23.6803 46.6667 31.6508C46.6667 33.9542 46.1178 36.2437 45.0807 38.2857H34.0952C33.4309 38.2857 32.8279 38.5525 32.3868 38.9841H31.127C30.6456 38.9841 30.254 39.428 30.254 39.9735V42.5344C30.254 43.08 30.6456 43.5238 31.127 43.5238H31.6508V46.313ZM31.6508 40.7302V42.8254H31.127C31.0462 42.8254 30.9524 42.6983 30.9524 42.5344V39.9735C30.9524 39.8097 31.0462 39.6825 31.127 39.6825H31.8871C31.7357 40.0002 31.6508 40.3555 31.6508 40.7302ZM48.7619 51.2063H34.0952C33.1325 51.2063 32.3492 50.4231 32.3492 49.4603V40.7302C32.3492 39.7674 33.1325 38.9841 34.0952 38.9841H49.1111C50.0739 38.9841 50.8572 39.7674 50.8572 40.7302V48.7619L52.9122 52.9542L48.7619 51.2063Z" fill="#1D1C18"/>
<path d="M47.3652 42.127H35.8414C35.6485 42.127 35.4922 42.2833 35.4922 42.4762C35.4922 42.669 35.6485 42.8254 35.8414 42.8254H47.3652C47.5581 42.8254 47.7144 42.669 47.7144 42.4762C47.7144 42.2833 47.5581 42.127 47.3652 42.127Z" fill="#1D1C18"/>
<path d="M47.3652 47.0161H35.8414C35.6485 47.0161 35.4922 47.1725 35.4922 47.3653C35.4922 47.5582 35.6485 47.7145 35.8414 47.7145H47.3652C47.5581 47.7145 47.7144 47.5582 47.7144 47.3653C47.7144 47.1725 47.5581 47.0161 47.3652 47.0161Z" fill="#1D1C18"/>
</svg>
