<svg width="64" height="64" viewBox="0 0 64 64" fill="none" xmlns="http://www.w3.org/2000/svg">
<rect width="64" height="64" rx="10" fill="#F5F2EF"/>
<g clip-path="url(#clip0_901_2926)">
<path fill-rule="evenodd" clip-rule="evenodd" d="M41.8537 50.8783H13.4012C12.5117 50.8783 11.7031 50.5228 11.1174 49.9501C10.5316 49.3774 10.168 48.5868 10.168 47.7169V17.043C10.168 16.1731 10.5316 15.3825 11.1174 14.8097C11.7031 14.2371 12.5117 13.8815 13.4012 13.8815H16.4678V11.1921C16.4678 10.864 16.6047 10.566 16.8252 10.3504C17.0457 10.1348 17.3504 10.001 17.686 10.001H21.5598C21.8954 10.001 22.2 10.1348 22.4205 10.3504C22.641 10.566 22.7779 10.864 22.7779 11.1921V13.8815H35.3957V11.1921C35.3957 10.864 35.5325 10.566 35.753 10.3504C35.9735 10.1348 36.2782 10.001 36.6138 10.001H40.4876C40.8232 10.001 41.1279 10.1348 41.3483 10.3504C41.5688 10.566 41.7057 10.864 41.7057 11.1921V13.8815H44.7724C45.6621 13.8815 46.4707 14.2371 47.0563 14.8097C47.6421 15.3825 48.0057 16.1731 48.0057 17.043V41.4617C49.5407 41.6004 50.9196 42.2672 51.95 43.2747C53.1127 44.4117 53.832 45.9824 53.832 47.717C53.832 49.4517 53.1127 51.0222 51.95 52.1592C50.7874 53.2961 49.181 53.9993 47.4069 53.9993C45.0374 53.9993 42.9678 52.7449 41.8537 50.8783ZM13.4013 49.7072H41.3111C41.0976 49.0819 40.9818 48.4126 40.9818 47.717C40.9818 44.4449 43.5404 41.7574 46.808 41.462V24.3753H11.3657V47.7169C11.3657 48.2636 11.595 48.7613 11.9641 49.1222C12.3333 49.4832 12.8422 49.7072 13.4013 49.7072ZM11.3657 17.043V23.2043H46.808V17.043C46.808 16.4962 46.5788 15.9986 46.2096 15.6376C45.8405 15.2767 45.3317 15.0526 44.7725 15.0526H41.7058V17.7418C41.7058 18.0684 41.569 18.3654 41.3484 18.5813L41.3461 18.5837C41.1255 18.7992 40.8216 18.9331 40.4876 18.9331H36.6139C36.2805 18.9331 35.976 18.7987 35.7544 18.5823L35.7531 18.5836C35.5326 18.368 35.3957 18.07 35.3957 17.7418V15.0526H22.778V17.7418C22.778 18.07 22.6409 18.368 22.4205 18.5836C22.4053 18.5983 22.3898 18.6121 22.3735 18.6251C22.1567 18.8161 21.8709 18.9331 21.5599 18.9331H17.6861C17.3522 18.9331 17.0482 18.7991 16.8276 18.5837L16.8252 18.5813C16.6047 18.3654 16.4679 18.0684 16.4679 17.7418V15.0526H13.4013C12.8422 15.0526 12.3333 15.2768 11.9641 15.6376C11.595 15.9986 11.3657 16.4962 11.3657 17.043ZM15.7273 27.8571C15.3966 27.8571 15.1284 28.1193 15.1284 28.4426V32.339C15.1284 32.6623 15.3966 32.9245 15.7273 32.9245H19.7122C20.0429 32.9245 20.311 32.6623 20.311 32.339V28.4426C20.311 28.1193 20.0429 27.8571 19.7122 27.8571H15.7273ZM19.1133 29.0283H16.3261V31.7534H19.1133V29.0283ZM23.3054 27.8571C22.9747 27.8571 22.7066 28.1193 22.7066 28.4426V32.339C22.7066 32.6623 22.9747 32.9245 23.3054 32.9245H27.2903C27.621 32.9245 27.8892 32.6623 27.8892 32.339V28.4426C27.8892 28.1193 27.621 27.8571 27.2903 27.8571H23.3054ZM26.6914 29.0283H23.9044V31.7534H26.6914V29.0283ZM30.8836 27.8571C30.5529 27.8571 30.2848 28.1193 30.2848 28.4426V32.339C30.2848 32.6623 30.5529 32.9245 30.8836 32.9245H34.8684C35.1992 32.9245 35.4674 32.6623 35.4674 32.339V28.4426C35.4674 28.1193 35.1992 27.8571 34.8684 27.8571H30.8836ZM34.2696 29.0283H31.4825V31.7534H34.2696V29.0283ZM38.4619 27.8571C38.1312 27.8571 37.863 28.1193 37.863 28.4426V32.339C37.863 32.6623 38.1312 32.9245 38.4619 32.9245H42.4467C42.7774 32.9245 43.0456 32.6623 43.0456 32.339V28.4426C43.0456 28.1193 42.7774 27.8571 42.4467 27.8571H38.4619ZM41.8479 29.0283H39.0607V31.7534H41.8479V29.0283ZM15.7273 34.7831C15.3966 34.7831 15.1284 35.0454 15.1284 35.3687V39.265C15.1284 39.5884 15.3966 39.8506 15.7273 39.8506H19.7122C20.0429 39.8506 20.311 39.5884 20.311 39.265V35.3687C20.311 35.0454 20.0429 34.7831 19.7122 34.7831H15.7273ZM19.1133 35.9543H16.3261V38.6794H19.1133V35.9543ZM23.3054 34.7831C22.9747 34.7831 22.7066 35.0454 22.7066 35.3687V39.265C22.7066 39.5884 22.9747 39.8506 23.3054 39.8506H27.2903C27.621 39.8506 27.8892 39.5884 27.8892 39.265V35.3687C27.8892 35.0454 27.621 34.7831 27.2903 34.7831H23.3054ZM26.6914 35.9543H23.9044V38.6794H26.6914V35.9543ZM30.8836 34.7831C30.5529 34.7831 30.2848 35.0454 30.2848 35.3687V39.265C30.2848 39.5884 30.5529 39.8506 30.8836 39.8506H34.8684C35.1992 39.8506 35.4674 39.5884 35.4674 39.265V35.3687C35.4674 35.0454 35.1992 34.7831 34.8684 34.7831H30.8836ZM34.2696 35.9543H31.4825V38.6794H34.2696V35.9543ZM38.4619 34.7831C38.1312 34.7831 37.863 35.0454 37.863 35.3687V39.265C37.863 39.5884 38.1312 39.8506 38.4619 39.8506H42.4467C42.7774 39.8506 43.0456 39.5884 43.0456 39.265V35.3687C43.0456 35.0454 42.7774 34.7831 42.4467 34.7831H38.4619ZM41.8479 35.9543H39.0607V38.6794H41.8479V35.9543ZM15.7273 41.7092C15.3966 41.7092 15.1284 41.9715 15.1284 42.2948V46.1911C15.1284 46.5145 15.3966 46.7767 15.7273 46.7767H19.7122C20.0429 46.7767 20.311 46.5145 20.311 46.1911V42.2948C20.311 41.9715 20.0429 41.7092 19.7122 41.7092H15.7273ZM19.1133 42.8804H16.3261V45.6055H19.1133V42.8804ZM23.3054 41.7092C22.9747 41.7092 22.7066 41.9715 22.7066 42.2948V46.1911C22.7066 46.5145 22.9747 46.7767 23.3054 46.7767H27.2903C27.621 46.7767 27.8892 46.5145 27.8892 46.1911V42.2948C27.8892 41.9715 27.621 41.7092 27.2903 41.7092H23.3054ZM26.6914 42.8804H23.9044V45.6055H26.6914V42.8804ZM30.8836 41.7092C30.5529 41.7092 30.2848 41.9715 30.2848 42.2948V46.1911C30.2848 46.5145 30.5529 46.7767 30.8836 46.7767H34.8684C35.1992 46.7767 35.4674 46.5145 35.4674 46.1911V42.2948C35.4674 41.9715 35.1992 41.7092 34.8684 41.7092H30.8836ZM34.2696 42.8804H31.4825V45.6055H34.2696V42.8804ZM43.9711 47.9403L46.1094 50.0312C46.3433 50.2598 46.7224 50.2598 46.9561 50.0312L50.8428 46.2307C51.0767 46.0021 51.0767 45.6313 50.8428 45.4028C50.609 45.1742 50.23 45.1742 49.9961 45.4028L46.5328 48.7894L44.8179 47.1124C44.584 46.8838 44.2049 46.8838 43.9712 47.1124C43.7374 47.341 43.7373 47.7118 43.9711 47.9403ZM51.1034 44.1026C50.1576 43.1779 48.8506 42.6057 47.4071 42.6057C44.5201 42.6057 42.1796 44.8942 42.1796 47.717C42.1796 50.5398 44.5201 52.8282 47.4071 52.8282C48.8506 52.8282 50.1577 52.256 51.1034 51.3312C52.0493 50.4063 52.6344 49.1284 52.6344 47.717C52.6344 46.3056 52.0493 45.0275 51.1034 44.1026ZM21.5598 11.1721H17.6861C17.681 11.1721 17.6758 11.1746 17.6719 11.1784C17.6681 11.1821 17.6656 11.1871 17.6656 11.1921V17.7419C17.6656 17.7478 17.6676 17.7531 17.6709 17.7568C17.6747 17.76 17.68 17.7619 17.686 17.7619H21.5598L21.5687 17.7606L21.5737 17.7556C21.5776 17.7519 21.5803 17.7468 21.5803 17.7418V11.1921C21.5803 11.1871 21.5777 11.1821 21.5738 11.1783C21.57 11.1746 21.5649 11.1721 21.5598 11.1721ZM40.4877 11.1721H36.6139C36.6088 11.1721 36.6036 11.1746 36.5998 11.1784C36.596 11.1821 36.5934 11.1871 36.5934 11.1921V17.7419C36.5934 17.7469 36.596 17.752 36.5999 17.7557L36.5987 17.7568L36.5999 17.7579C36.6024 17.7604 36.6072 17.762 36.6139 17.762H40.4877C40.4937 17.762 40.499 17.76 40.5028 17.7569C40.506 17.7531 40.5081 17.7478 40.5081 17.7419V11.1921C40.5081 11.1871 40.5055 11.1821 40.5017 11.1783C40.4978 11.1746 40.4928 11.1721 40.4877 11.1721Z" fill="#3B241A"/>
</g>
<defs>
<clipPath id="clip0_901_2926">
<rect width="44" height="44" fill="white" transform="translate(10 10)"/>
</clipPath>
</defs>
</svg>
