<svg width="64" height="64" viewBox="0 0 64 64" fill="none" xmlns="http://www.w3.org/2000/svg">
<rect width="64" height="64" rx="10" fill="#F5F2EF"/>
<path d="M43.1111 36.8611C41.375 36.8611 39.7083 36.5833 38.1528 36.0694C37.6667 35.9167 37.125 36.0278 36.7361 36.4028L33.6806 39.4583C29.75 37.4583 26.5278 34.25 24.5278 30.3056L27.5833 27.2361C27.9722 26.875 28.0833 26.3333 27.9306 25.8472C27.4167 24.2917 27.1389 22.625 27.1389 20.8889C27.1389 20.125 26.5139 19.5 25.75 19.5H20.8889C20.125 19.5 19.5 20.125 19.5 20.8889C19.5 33.9306 30.0694 44.5 43.1111 44.5C43.875 44.5 44.5 43.875 44.5 43.1111V38.25C44.5 37.4861 43.875 36.8611 43.1111 36.8611ZM41.7222 32H44.5C44.5 25.0972 38.9028 19.5 32 19.5V22.2778C37.375 22.2778 41.7222 26.625 41.7222 32ZM36.1667 32H38.9444C38.9444 28.1667 35.8333 25.0556 32 25.0556V27.8333C34.3056 27.8333 36.1667 29.6944 36.1667 32Z" fill="#3B241A"/>
</svg>
