<svg width="44" height="44" viewBox="0 0 44 44" fill="none" xmlns="http://www.w3.org/2000/svg">
<rect x="0.5" y="0.5" width="43" height="43" rx="21.5" stroke="white"/>
<path d="M30.8889 25.8889C29.5 25.8889 28.1667 25.6667 26.9222 25.2556C26.5333 25.1333 26.1 25.2222 25.7889 25.5222L23.3444 27.9667C20.2 26.3667 17.6222 23.8 16.0222 20.6444L18.4667 18.1889C18.7778 17.9 18.8667 17.4667 18.7444 17.0778C18.3333 15.8333 18.1111 14.5 18.1111 13.1111C18.1111 12.5 17.6111 12 17 12H13.1111C12.5 12 12 12.5 12 13.1111C12 23.5444 20.4556 32 30.8889 32C31.5 32 32 31.5 32 30.8889V27C32 26.3889 31.5 25.8889 30.8889 25.8889ZM29.7778 22H32C32 16.4778 27.5222 12 22 12V14.2222C26.3 14.2222 29.7778 17.7 29.7778 22ZM25.3333 22H27.5556C27.5556 18.9333 25.0667 16.4444 22 16.4444V18.6667C23.8444 18.6667 25.3333 20.1556 25.3333 22Z" fill="white"/>
</svg>
