<svg width="25" height="25" viewBox="0 0 25 25" fill="none" xmlns="http://www.w3.org/2000/svg">
<path d="M21.3889 16.3889C20 16.3889 18.6667 16.1667 17.4222 15.7556C17.0333 15.6333 16.6 15.7222 16.2889 16.0222L13.8444 18.4667C10.7 16.8667 8.12222 14.3 6.52222 11.1444L8.96667 8.68889C9.27778 8.4 9.36667 7.96667 9.24444 7.57778C8.83333 6.33333 8.61111 5 8.61111 3.61111C8.61111 3 8.11111 2.5 7.5 2.5H3.61111C3 2.5 2.5 3 2.5 3.61111C2.5 14.0444 10.9556 22.5 21.3889 22.5C22 22.5 22.5 22 22.5 21.3889V17.5C22.5 16.8889 22 16.3889 21.3889 16.3889ZM20.2778 12.5H22.5C22.5 6.97778 18.0222 2.5 12.5 2.5V4.72222C16.8 4.72222 20.2778 8.2 20.2778 12.5ZM15.8333 12.5H18.0556C18.0556 9.43333 15.5667 6.94444 12.5 6.94444V9.16667C14.3444 9.16667 15.8333 10.6556 15.8333 12.5Z" fill="white"/>
</svg>
