<svg width="44" height="44" viewBox="0 0 44 44" fill="none" xmlns="http://www.w3.org/2000/svg">
<rect x="0.5" y="0.5" width="43" height="43" rx="21.5" stroke="white"/>
<path fill-rule="evenodd" clip-rule="evenodd" d="M31.9615 14.3854C32.2493 12.8484 30.8712 11.571 29.5352 12.1365L13.1582 19.0682C11.6662 19.6997 11.5997 21.9853 13.0519 22.7195L16.6184 24.5228L18.315 31.0279C18.4031 31.3658 18.6479 31.6274 18.9584 31.7156C19.269 31.8037 19.5989 31.7053 19.8257 31.4567L22.4392 28.5937L26.1001 31.6016C27.1628 32.4747 28.6934 31.8388 28.9603 30.4133L31.9615 14.3854ZM13.8107 20.9185L30.1878 13.9868L27.1865 30.0148L22.8974 26.4907C22.537 26.1945 22.0327 26.2338 21.7141 26.5828L20.5947 27.8091L20.931 25.7828L27.5212 18.5634C27.8419 18.212 27.8758 17.6549 27.6005 17.2601C27.3251 16.8652 26.8257 16.7544 26.4318 17.001L17.3307 22.6982L13.8107 20.9185ZM18.4404 24.2881L18.9894 26.3931L19.2001 25.1231C19.2331 24.9247 19.3205 24.7419 19.4507 24.5992L21.4605 22.3977L18.4404 24.2881Z" fill="white"/>
</svg>
