<svg width="44" height="44" viewBox="0 0 44 44" fill="none" xmlns="http://www.w3.org/2000/svg">
<rect x="0.5" y="0.5" width="43" height="43" rx="21.5" stroke="white"/>
<path fill-rule="evenodd" clip-rule="evenodd" d="M31.841 26.3961C31.3749 25.3655 30.7607 24.424 30.0219 23.6078C29.7748 23.3013 29.5161 23.0063 29.2464 22.7236L29.2139 22.6888C29.1137 22.582 29.0149 22.4738 28.9174 22.3642C29.9273 20.8225 30.7915 19.1718 31.4966 17.4377L31.5249 17.3681L31.5446 17.2947C31.638 16.9532 31.7442 16.3041 31.3672 15.7171C30.9764 15.1113 30.3518 15.0022 29.9328 15.0022H28.0074C27.6042 14.982 27.2056 15.1024 26.8685 15.346C26.5314 15.5897 26.2732 15.9441 26.1308 16.3587C25.7164 17.4421 25.1976 18.4736 24.5833 19.4358V16.9589C24.5833 16.639 24.5559 16.1028 24.2431 15.6513C23.8695 15.1094 23.3288 15.0022 22.9535 15.0022H19.8979C19.4991 14.9921 19.1121 15.1508 18.817 15.4453C18.5219 15.7399 18.3413 16.1477 18.3126 16.5845L18.3101 16.6268V16.6691C18.3101 17.1254 18.4746 17.4621 18.6065 17.6738C18.6657 17.7688 18.7282 17.8554 18.7685 17.9099L18.7771 17.9222C18.8199 17.9805 18.8482 18.019 18.8765 18.0623C18.9519 18.1733 19.059 18.3464 19.0898 18.7923V20.178C18.4764 19.0504 17.9735 17.8546 17.5894 16.6108L17.5826 16.5901L17.5757 16.5703C17.4712 16.2703 17.3041 15.8338 16.969 15.5008C16.5783 15.1104 16.1156 15.0022 15.6949 15.0022H13.7412C13.3153 15.0022 12.802 15.1113 12.419 15.5544C12.0428 15.9909 12 16.5139 12 16.7905V16.9165L12.024 17.0388C12.5649 19.7958 13.6797 22.378 15.281 24.5833C16.0131 25.8508 17.007 26.9109 18.1821 27.6778C19.3572 28.4447 20.6804 28.8967 22.0443 28.9972L22.0795 29H22.1155C22.7376 29 23.3862 28.9407 23.8738 28.5842C24.531 28.1026 24.5833 27.3641 24.5833 26.9953V25.9248C24.7521 26.0753 24.9612 26.2766 25.2174 26.5476C25.5276 26.8881 25.7743 27.1835 25.986 27.4412L26.0991 27.5786C26.2636 27.7799 26.4256 27.9784 26.5729 28.1411C26.758 28.3453 26.9868 28.5701 27.273 28.7366C27.5841 28.9163 27.9105 28.9981 28.2567 28.9981H30.2113C30.6234 28.9981 31.2138 28.8909 31.6294 28.3622C32.0818 27.7865 32.0476 27.08 31.9053 26.573L31.8796 26.4817L31.841 26.3961ZM26.9397 26.4958C26.6741 26.1699 26.4007 25.8518 26.1197 25.5419L26.1171 25.5391C24.9543 24.3087 24.4119 24.0951 24.028 24.0951C23.8232 24.0951 23.5979 24.1196 23.4513 24.3209C23.3854 24.4169 23.3421 24.5294 23.3254 24.6483C23.3047 24.7863 23.2955 24.9261 23.298 25.0659V26.9953C23.298 27.2352 23.262 27.3359 23.1609 27.4093C23.0263 27.508 22.7393 27.588 22.1232 27.588C20.9529 27.5006 19.8181 27.1094 18.8123 26.4468C17.8065 25.7841 16.9584 24.8689 16.3375 23.7762L16.3307 23.764L16.3221 23.7527C14.8304 21.7143 13.7907 19.3231 13.2853 16.7679C13.2887 16.6456 13.3127 16.5713 13.3522 16.5261C13.3924 16.4791 13.491 16.4132 13.7412 16.4132H15.6949C15.9117 16.4132 16.0248 16.4659 16.1062 16.5459C16.197 16.6381 16.2775 16.7933 16.3735 17.0699C16.8534 18.6183 17.5012 20.067 18.1155 21.1309C18.4223 21.6634 18.7239 22.1064 18.9964 22.4197C19.1327 22.5759 19.2655 22.7057 19.3932 22.7979C19.5157 22.8863 19.6554 22.9569 19.7993 22.9569C19.8747 22.9569 19.963 22.9474 20.0478 22.907C20.1394 22.8626 20.2148 22.7857 20.262 22.6888C20.3503 22.5119 20.3751 22.2513 20.3751 21.9098V18.7368C20.3297 17.9673 20.1181 17.5336 19.9124 17.226C19.8708 17.1645 19.8279 17.104 19.7839 17.0445L19.7728 17.0294C19.7362 16.9807 19.7013 16.9305 19.6682 16.8789C19.626 16.8214 19.6006 16.7512 19.5954 16.6776C19.6021 16.6028 19.6346 16.5337 19.6862 16.4844C19.7378 16.4351 19.8046 16.4093 19.873 16.4123H22.9535C23.13 16.4123 23.1891 16.4593 23.2191 16.5036C23.262 16.5647 23.298 16.6917 23.298 16.9589V21.2184C23.298 21.7245 23.5105 22.0669 23.8189 22.0669C24.1737 22.0669 24.4299 21.8308 24.8772 21.3398L24.8849 21.3304L24.8918 21.3219C25.8951 19.9788 26.7149 18.4824 27.3253 16.8798L27.3287 16.8686C27.3746 16.727 27.4614 16.6057 27.5759 16.5234C27.6904 16.441 27.8262 16.402 27.9628 16.4123H29.9336C30.201 16.4123 30.2884 16.4876 30.3175 16.5318C30.3475 16.5788 30.3689 16.6795 30.3175 16.877C29.6137 18.6045 28.7436 20.2444 27.722 21.7687L27.7152 21.78C27.6166 21.9465 27.5078 22.1309 27.4924 22.3416C27.4752 22.5693 27.5644 22.7753 27.7212 22.9973C27.8351 23.1817 28.0708 23.4347 28.3098 23.6916L28.3321 23.716C28.5823 23.9851 28.854 24.2767 29.0716 24.5589L29.0776 24.5655L29.0836 24.573C29.7326 25.2837 30.2723 26.1053 30.6817 27.0057C30.7468 27.2503 30.7074 27.3763 30.656 27.4412C30.5969 27.5165 30.464 27.587 30.2121 27.587H28.2567C28.1234 27.5906 27.9916 27.5566 27.8737 27.4883C27.7292 27.396 27.5981 27.2806 27.4847 27.1459C27.3621 27.0113 27.2293 26.8486 27.0665 26.6501L26.9405 26.4958H26.9397Z" fill="white"/>
</svg>
