<svg width="44" height="44" viewBox="0 0 44 44" fill="none" xmlns="http://www.w3.org/2000/svg">
<rect x="0.5" y="0.5" width="43" height="43" rx="21.5" stroke="white"/>
<path d="M29.1352 14.91C27.2558 13.03 24.7533 12 22.09 12C16.6026 12 12.1302 16.45 12.1302 21.91C12.1302 23.66 12.5925 25.36 13.4568 26.86L12.0498 32L17.3262 30.62C18.7835 31.41 20.4217 31.83 22.09 31.83C27.5774 31.83 32.0498 27.38 32.0498 21.92C32.0498 19.27 31.0146 16.78 29.1352 14.91ZM22.09 30.15C20.6026 30.15 19.1453 29.75 17.8689 29L17.5674 28.82L14.4317 29.64L15.2659 26.6L15.0649 26.29C14.2408 24.98 13.7985 23.46 13.7985 21.91C13.7985 17.37 17.5171 13.67 22.08 13.67C24.291 13.67 26.3714 14.53 27.9292 16.09C29.497 17.65 30.3513 19.72 30.3513 21.92C30.3714 26.46 26.6528 30.15 22.09 30.15ZM26.6327 23.99C26.3815 23.87 25.1553 23.27 24.9342 23.18C24.7031 23.1 24.5423 23.06 24.3714 23.3C24.2006 23.55 23.7282 24.11 23.5875 24.27C23.4468 24.44 23.296 24.46 23.0448 24.33C22.7935 24.21 21.9895 23.94 21.0448 23.1C20.3011 22.44 19.8086 21.63 19.6578 21.38C19.5171 21.13 19.6377 21 19.7684 20.87C19.8789 20.76 20.0197 20.58 20.1403 20.44C20.2609 20.3 20.3111 20.19 20.3915 20.03C20.4719 19.86 20.4317 19.72 20.3714 19.6C20.3111 19.48 19.8086 18.26 19.6076 17.76C19.4066 17.28 19.1955 17.34 19.0448 17.33C18.894 17.33 18.7332 17.33 18.5624 17.33C18.3915 17.33 18.1302 17.39 17.8991 17.64C17.6779 17.89 17.0347 18.49 17.0347 19.71C17.0347 20.93 17.9292 22.11 18.0498 22.27C18.1704 22.44 19.8086 24.94 22.3011 26.01C22.894 26.27 23.3563 26.42 23.7181 26.53C24.3111 26.72 24.8538 26.69 25.286 26.63C25.7684 26.56 26.7634 26.03 26.9644 25.45C27.1754 24.87 27.1754 24.38 27.1051 24.27C27.0347 24.16 26.884 24.11 26.6327 23.99Z" fill="white"/>
</svg>
